<svg width="1644" height="259" viewBox="0 0 1644 259" fill="none" xmlns="http://www.w3.org/2000/svg">
<g filter="url(#filter0_dd)">
<rect x="12" y="7" width="1620" height="240" rx="3" fill="#C4C4C4"/>
</g>
<mask id="mask0" mask-type="alpha" maskUnits="userSpaceOnUse" x="12" y="7" width="1620" height="240">
<rect x="12" y="7" width="1620" height="240" rx="3" fill="#C4C4C4"/>
</mask>
<g mask="url(#mask0)">
<rect x="12" y="-188" width="1620" height="912"/>
</g>
<rect x="12" y="7" width="1620" height="240" rx="3" fill="black" fill-opacity="0.7"/>
<path d="M721.577 100C721.344 100 721.134 99.9183 720.947 99.755C720.784 99.5683 720.702 99.3583 720.702 99.125V76.375C720.702 76.1183 720.784 75.9083 720.947 75.745C721.134 75.5817 721.344 75.5 721.577 75.5H732.252C735.192 75.5 737.374 76.1067 738.797 77.32C740.244 78.51 740.967 80.2133 740.967 82.43C740.967 83.5967 740.664 84.5883 740.057 85.405C739.474 86.1983 738.809 86.7817 738.062 87.155C739.019 87.5983 739.824 88.31 740.477 89.29C741.13 90.27 741.457 91.3667 741.457 92.58C741.457 94.9133 740.687 96.7333 739.147 98.04C737.607 99.3467 735.414 100 732.567 100H721.577ZM731.552 85.23C732.485 85.23 733.197 84.9967 733.687 84.53C734.177 84.04 734.422 83.3983 734.422 82.605C734.422 81.835 734.177 81.2167 733.687 80.75C733.197 80.2833 732.485 80.05 731.552 80.05H727.002V85.23H731.552ZM731.867 95.45C732.824 95.45 733.57 95.17 734.107 94.61C734.644 94.05 734.912 93.3733 734.912 92.58C734.912 91.74 734.644 91.0517 734.107 90.515C733.57 89.955 732.824 89.675 731.867 89.675H727.002V95.45H731.867ZM753.361 100.35C750.561 100.35 748.356 99.5917 746.746 98.075C745.136 96.5583 744.296 94.3533 744.226 91.46V90.235C744.319 87.4817 745.171 85.335 746.781 83.795C748.414 82.2317 750.596 81.45 753.326 81.45C755.309 81.45 756.977 81.8583 758.331 82.675C759.707 83.4683 760.734 84.565 761.411 85.965C762.111 87.365 762.461 88.975 762.461 90.795V91.635C762.461 91.8683 762.379 92.0783 762.216 92.265C762.052 92.4283 761.842 92.51 761.586 92.51H750.386V92.755C750.432 93.8517 750.701 94.7383 751.191 95.415C751.681 96.0917 752.392 96.43 753.326 96.43C753.909 96.43 754.387 96.3133 754.761 96.08C755.134 95.8233 755.472 95.52 755.776 95.17C755.986 94.9133 756.149 94.7617 756.266 94.715C756.406 94.645 756.616 94.61 756.896 94.61H761.236C761.446 94.61 761.621 94.68 761.761 94.82C761.924 94.9367 762.006 95.1 762.006 95.31C762.006 95.9167 761.656 96.6167 760.956 97.41C760.279 98.2033 759.287 98.8917 757.981 99.475C756.674 100.058 755.134 100.35 753.361 100.35ZM756.301 89.045V88.975C756.301 87.8317 756.032 86.9333 755.496 86.28C754.982 85.6033 754.259 85.265 753.326 85.265C752.416 85.265 751.692 85.6033 751.156 86.28C750.642 86.9333 750.386 87.8317 750.386 88.975V89.045H756.301ZM773.232 100.35C771.342 100.35 769.755 100.082 768.472 99.545C767.212 99.0083 766.278 98.3667 765.672 97.62C765.065 96.8733 764.762 96.2083 764.762 95.625C764.762 95.3917 764.843 95.205 765.007 95.065C765.193 94.9017 765.392 94.82 765.602 94.82H769.592C769.732 94.82 769.86 94.8783 769.977 94.995C770.257 95.1817 770.467 95.3333 770.607 95.45C771.12 95.8233 771.563 96.1033 771.937 96.29C772.333 96.4533 772.812 96.535 773.372 96.535C774.048 96.535 774.597 96.4067 775.017 96.15C775.46 95.87 775.682 95.485 775.682 94.995C775.682 94.5983 775.565 94.2833 775.332 94.05C775.122 93.8167 774.702 93.595 774.072 93.385C773.442 93.1517 772.485 92.9067 771.202 92.65C769.265 92.2533 767.772 91.6117 766.722 90.725C765.695 89.815 765.182 88.6017 765.182 87.085C765.182 86.1283 765.485 85.2183 766.092 84.355C766.698 83.4917 767.597 82.7917 768.787 82.255C770 81.7183 771.435 81.45 773.092 81.45C774.748 81.45 776.195 81.7067 777.432 82.22C778.668 82.7333 779.602 83.3633 780.232 84.11C780.885 84.8333 781.212 85.4983 781.212 86.105C781.212 86.315 781.13 86.5017 780.967 86.665C780.827 86.8283 780.652 86.91 780.442 86.91H776.802C776.615 86.91 776.44 86.8517 776.277 86.735C775.973 86.5717 775.705 86.3967 775.472 86.21C775.075 85.9067 774.702 85.6733 774.352 85.51C774.002 85.3467 773.57 85.265 773.057 85.265C772.45 85.265 771.96 85.405 771.587 85.685C771.237 85.965 771.062 86.3267 771.062 86.77C771.062 87.12 771.155 87.4117 771.342 87.645C771.552 87.8783 771.972 88.1117 772.602 88.345C773.255 88.555 774.212 88.7767 775.472 89.01C777.735 89.4067 779.38 90.1067 780.407 91.11C781.457 92.1133 781.982 93.2917 781.982 94.645C781.982 96.3717 781.212 97.76 779.672 98.81C778.132 99.8367 775.985 100.35 773.232 100.35ZM794.295 100C789.465 100 787.05 97.7017 787.05 93.105V86.385H784.32C784.063 86.385 783.842 86.3033 783.655 86.14C783.492 85.9767 783.41 85.7667 783.41 85.51V82.675C783.41 82.4183 783.492 82.2083 783.655 82.045C783.842 81.8817 784.063 81.8 784.32 81.8H787.05V76.025C787.05 75.7683 787.132 75.5583 787.295 75.395C787.482 75.2317 787.692 75.15 787.925 75.15H791.985C792.242 75.15 792.452 75.2317 792.615 75.395C792.778 75.5583 792.86 75.7683 792.86 76.025V81.8H797.235C797.492 81.8 797.702 81.8817 797.865 82.045C798.052 82.2083 798.145 82.4183 798.145 82.675V85.51C798.145 85.7667 798.052 85.9767 797.865 86.14C797.702 86.3033 797.492 86.385 797.235 86.385H792.86V92.615C792.86 94.3417 793.525 95.205 794.855 95.205H797.55C797.807 95.205 798.017 95.2867 798.18 95.45C798.343 95.6133 798.425 95.8233 798.425 96.08V99.125C798.425 99.3583 798.343 99.5683 798.18 99.755C798.017 99.9183 797.807 100 797.55 100H794.295ZM818.294 100.35C816.077 100.35 814.176 100.023 812.589 99.37C811.002 98.7167 809.801 97.865 808.984 96.815C808.191 95.7417 807.771 94.575 807.724 93.315C807.724 93.1283 807.794 92.965 807.934 92.825C808.097 92.6617 808.284 92.58 808.494 92.58H812.904C813.184 92.58 813.406 92.6383 813.569 92.755C813.756 92.8483 813.942 93 814.129 93.21C814.432 93.8167 814.922 94.3183 815.599 94.715C816.276 95.1117 817.174 95.31 818.294 95.31C819.624 95.31 820.639 95.1 821.339 94.68C822.039 94.26 822.389 93.6883 822.389 92.965C822.389 92.4517 822.202 92.0317 821.829 91.705C821.479 91.3783 820.919 91.0867 820.149 90.83C819.379 90.5733 818.236 90.2817 816.719 89.955C813.919 89.3717 811.819 88.52 810.419 87.4C809.042 86.2567 808.354 84.635 808.354 82.535C808.354 81.1117 808.751 79.84 809.544 78.72C810.337 77.6 811.469 76.725 812.939 76.095C814.409 75.465 816.124 75.15 818.084 75.15C820.114 75.15 821.876 75.5 823.369 76.2C824.862 76.9 825.994 77.7867 826.764 78.86C827.557 79.91 827.977 80.9483 828.024 81.975C828.024 82.185 827.954 82.36 827.814 82.5C827.674 82.64 827.499 82.71 827.289 82.71H822.669C822.389 82.71 822.156 82.6633 821.969 82.57C821.806 82.4767 821.654 82.325 821.514 82.115C821.374 81.5783 820.989 81.1233 820.359 80.75C819.752 80.3767 818.994 80.19 818.084 80.19C817.034 80.19 816.229 80.3767 815.669 80.75C815.109 81.1233 814.829 81.6717 814.829 82.395C814.829 82.885 814.981 83.2933 815.284 83.62C815.611 83.9467 816.124 84.25 816.824 84.53C817.547 84.7867 818.574 85.055 819.904 85.335C822.074 85.7317 823.801 86.2333 825.084 86.84C826.391 87.4233 827.347 88.1933 827.954 89.15C828.561 90.0833 828.864 91.2617 828.864 92.685C828.864 94.2483 828.409 95.6133 827.499 96.78C826.612 97.9233 825.364 98.81 823.754 99.44C822.167 100.047 820.347 100.35 818.294 100.35ZM840.382 100.35C837.582 100.35 835.377 99.5917 833.767 98.075C832.157 96.5583 831.317 94.3533 831.247 91.46V90.235C831.34 87.4817 832.192 85.335 833.802 83.795C835.435 82.2317 837.617 81.45 840.347 81.45C842.33 81.45 843.999 81.8583 845.352 82.675C846.729 83.4683 847.755 84.565 848.432 85.965C849.132 87.365 849.482 88.975 849.482 90.795V91.635C849.482 91.8683 849.4 92.0783 849.237 92.265C849.074 92.4283 848.864 92.51 848.607 92.51H837.407V92.755C837.454 93.8517 837.722 94.7383 838.212 95.415C838.702 96.0917 839.414 96.43 840.347 96.43C840.93 96.43 841.409 96.3133 841.782 96.08C842.155 95.8233 842.494 95.52 842.797 95.17C843.007 94.9133 843.17 94.7617 843.287 94.715C843.427 94.645 843.637 94.61 843.917 94.61H848.257C848.467 94.61 848.642 94.68 848.782 94.82C848.945 94.9367 849.027 95.1 849.027 95.31C849.027 95.9167 848.677 96.6167 847.977 97.41C847.3 98.2033 846.309 98.8917 845.002 99.475C843.695 100.058 842.155 100.35 840.382 100.35ZM843.322 89.045V88.975C843.322 87.8317 843.054 86.9333 842.517 86.28C842.004 85.6033 841.28 85.265 840.347 85.265C839.437 85.265 838.714 85.6033 838.177 86.28C837.664 86.9333 837.407 87.8317 837.407 88.975V89.045H843.322ZM853.638 100C853.405 100 853.195 99.9183 853.008 99.755C852.845 99.5683 852.763 99.3583 852.763 99.125V76.025C852.763 75.7683 852.845 75.5583 853.008 75.395C853.195 75.2317 853.405 75.15 853.638 75.15H857.768C858.025 75.15 858.235 75.2317 858.398 75.395C858.562 75.5583 858.643 75.7683 858.643 76.025V99.125C858.643 99.3817 858.562 99.5917 858.398 99.755C858.235 99.9183 858.025 100 857.768 100H853.638ZM863.653 100C863.42 100 863.21 99.9183 863.023 99.755C862.86 99.5683 862.778 99.3583 862.778 99.125V76.025C862.778 75.7683 862.86 75.5583 863.023 75.395C863.21 75.2317 863.42 75.15 863.653 75.15H867.783C868.04 75.15 868.25 75.2317 868.413 75.395C868.576 75.5583 868.658 75.7683 868.658 76.025V99.125C868.658 99.3817 868.576 99.5917 868.413 99.755C868.25 99.9183 868.04 100 867.783 100H863.653ZM881.193 100.35C878.393 100.35 876.188 99.5917 874.578 98.075C872.968 96.5583 872.128 94.3533 872.058 91.46V90.235C872.151 87.4817 873.003 85.335 874.613 83.795C876.246 82.2317 878.428 81.45 881.158 81.45C883.141 81.45 884.809 81.8583 886.163 82.675C887.539 83.4683 888.566 84.565 889.243 85.965C889.943 87.365 890.293 88.975 890.293 90.795V91.635C890.293 91.8683 890.211 92.0783 890.048 92.265C889.884 92.4283 889.674 92.51 889.418 92.51H878.218V92.755C878.264 93.8517 878.533 94.7383 879.023 95.415C879.513 96.0917 880.224 96.43 881.158 96.43C881.741 96.43 882.219 96.3133 882.593 96.08C882.966 95.8233 883.304 95.52 883.608 95.17C883.818 94.9133 883.981 94.7617 884.098 94.715C884.238 94.645 884.448 94.61 884.728 94.61H889.068C889.278 94.61 889.453 94.68 889.593 94.82C889.756 94.9367 889.838 95.1 889.838 95.31C889.838 95.9167 889.488 96.6167 888.788 97.41C888.111 98.2033 887.119 98.8917 885.813 99.475C884.506 100.058 882.966 100.35 881.193 100.35ZM884.133 89.045V88.975C884.133 87.8317 883.864 86.9333 883.328 86.28C882.814 85.6033 882.091 85.265 881.158 85.265C880.248 85.265 879.524 85.6033 878.988 86.28C878.474 86.9333 878.218 87.8317 878.218 88.975V89.045H884.133ZM894.449 100C894.192 100 893.982 99.9183 893.819 99.755C893.655 99.5917 893.574 99.3817 893.574 99.125V82.675C893.574 82.4183 893.655 82.2083 893.819 82.045C893.982 81.8817 894.192 81.8 894.449 81.8H898.474C898.73 81.8 898.94 81.8933 899.104 82.08C899.29 82.2433 899.384 82.4417 899.384 82.675V84.075C900.667 82.5583 902.394 81.8 904.564 81.8H906.104C906.36 81.8 906.57 81.8817 906.734 82.045C906.897 82.2083 906.979 82.4183 906.979 82.675V86.28C906.979 86.5133 906.897 86.7233 906.734 86.91C906.57 87.0733 906.36 87.155 906.104 87.155H902.709C901.752 87.155 901.005 87.4233 900.469 87.96C899.955 88.4733 899.699 89.2083 899.699 90.165V99.125C899.699 99.3817 899.605 99.5917 899.419 99.755C899.255 99.9183 899.045 100 898.789 100H894.449ZM916.957 100.35C915.067 100.35 913.481 100.082 912.197 99.545C910.937 99.0083 910.004 98.3667 909.397 97.62C908.791 96.8733 908.487 96.2083 908.487 95.625C908.487 95.3917 908.569 95.205 908.732 95.065C908.919 94.9017 909.117 94.82 909.327 94.82H913.317C913.457 94.82 913.586 94.8783 913.702 94.995C913.982 95.1817 914.192 95.3333 914.332 95.45C914.846 95.8233 915.289 96.1033 915.662 96.29C916.059 96.4533 916.537 96.535 917.097 96.535C917.774 96.535 918.322 96.4067 918.742 96.15C919.186 95.87 919.407 95.485 919.407 94.995C919.407 94.5983 919.291 94.2833 919.057 94.05C918.847 93.8167 918.427 93.595 917.797 93.385C917.167 93.1517 916.211 92.9067 914.927 92.65C912.991 92.2533 911.497 91.6117 910.447 90.725C909.421 89.815 908.907 88.6017 908.907 87.085C908.907 86.1283 909.211 85.2183 909.817 84.355C910.424 83.4917 911.322 82.7917 912.512 82.255C913.726 81.7183 915.161 81.45 916.817 81.45C918.474 81.45 919.921 81.7067 921.157 82.22C922.394 82.7333 923.327 83.3633 923.957 84.11C924.611 84.8333 924.937 85.4983 924.937 86.105C924.937 86.315 924.856 86.5017 924.692 86.665C924.552 86.8283 924.377 86.91 924.167 86.91H920.527C920.341 86.91 920.166 86.8517 920.002 86.735C919.699 86.5717 919.431 86.3967 919.197 86.21C918.801 85.9067 918.427 85.6733 918.077 85.51C917.727 85.3467 917.296 85.265 916.782 85.265C916.176 85.265 915.686 85.405 915.312 85.685C914.962 85.965 914.787 86.3267 914.787 86.77C914.787 87.12 914.881 87.4117 915.067 87.645C915.277 87.8783 915.697 88.1117 916.327 88.345C916.981 88.555 917.937 88.7767 919.197 89.01C921.461 89.4067 923.106 90.1067 924.132 91.11C925.182 92.1133 925.707 93.2917 925.707 94.645C925.707 96.3717 924.937 97.76 923.397 98.81C921.857 99.8367 919.711 100.35 916.957 100.35Z" fill="white"/>
<path d="M666.553 181.17C665.612 181.17 664.796 181.023 664.105 180.728C663.425 180.433 662.904 180.048 662.541 179.572C662.178 179.085 661.986 178.563 661.963 178.008C661.963 177.917 661.997 177.838 662.065 177.77C662.144 177.691 662.235 177.651 662.337 177.651H663.204C663.419 177.651 663.567 177.764 663.646 177.991C663.748 178.467 664.037 178.875 664.513 179.215C665 179.555 665.68 179.725 666.553 179.725C667.494 179.725 668.202 179.561 668.678 179.232C669.154 178.892 669.392 178.422 669.392 177.821C669.392 177.436 669.273 177.124 669.035 176.886C668.808 176.648 668.468 176.438 668.015 176.257C667.562 176.076 666.882 175.849 665.975 175.577C665.091 175.328 664.388 175.061 663.867 174.778C663.346 174.495 662.955 174.143 662.694 173.724C662.433 173.305 662.303 172.778 662.303 172.143C662.303 171.531 662.467 170.981 662.796 170.494C663.136 170.007 663.618 169.627 664.241 169.355C664.864 169.072 665.607 168.93 666.468 168.93C667.352 168.93 668.111 169.089 668.746 169.406C669.381 169.712 669.862 170.103 670.191 170.579C670.52 171.055 670.695 171.531 670.718 172.007C670.718 172.098 670.684 172.177 670.616 172.245C670.559 172.313 670.474 172.347 670.361 172.347H669.46C669.222 172.347 669.075 172.239 669.018 172.024C668.95 171.548 668.684 171.157 668.219 170.851C667.754 170.534 667.171 170.375 666.468 170.375C665.697 170.375 665.091 170.522 664.649 170.817C664.207 171.112 663.986 171.548 663.986 172.126C663.986 172.511 664.088 172.829 664.292 173.078C664.507 173.327 664.83 173.548 665.261 173.741C665.692 173.922 666.321 174.132 667.148 174.37C668.111 174.631 668.871 174.903 669.426 175.186C669.981 175.458 670.395 175.804 670.667 176.223C670.939 176.631 671.075 177.152 671.075 177.787C671.075 178.841 670.667 179.668 669.851 180.269C669.035 180.87 667.936 181.17 666.553 181.17ZM673.49 181C673.377 181 673.281 180.966 673.201 180.898C673.133 180.819 673.099 180.722 673.099 180.609V169.321C673.099 169.208 673.133 169.117 673.201 169.049C673.281 168.97 673.377 168.93 673.49 168.93H674.34C674.454 168.93 674.544 168.97 674.612 169.049C674.692 169.117 674.731 169.208 674.731 169.321V173.282C675.06 172.863 675.445 172.545 675.887 172.33C676.329 172.103 676.879 171.99 677.536 171.99C678.624 171.99 679.469 172.341 680.069 173.044C680.681 173.735 680.987 174.659 680.987 175.815V180.609C680.987 180.722 680.948 180.819 680.868 180.898C680.8 180.966 680.71 181 680.596 181H679.746C679.633 181 679.537 180.966 679.457 180.898C679.389 180.819 679.355 180.722 679.355 180.609V175.9C679.355 175.095 679.157 174.472 678.76 174.03C678.375 173.588 677.814 173.367 677.077 173.367C676.363 173.367 675.791 173.594 675.36 174.047C674.941 174.489 674.731 175.107 674.731 175.9V180.609C674.731 180.722 674.692 180.819 674.612 180.898C674.544 180.966 674.454 181 674.34 181H673.49ZM687.063 181.17C685.816 181.17 684.847 180.819 684.156 180.116C683.476 179.413 683.113 178.478 683.068 177.311L683.051 176.58L683.068 175.849C683.113 174.693 683.481 173.764 684.173 173.061C684.864 172.347 685.827 171.99 687.063 171.99C688.298 171.99 689.261 172.347 689.953 173.061C690.644 173.764 691.012 174.693 691.058 175.849C691.069 175.974 691.075 176.217 691.075 176.58C691.075 176.943 691.069 177.186 691.058 177.311C691.012 178.478 690.644 179.413 689.953 180.116C689.273 180.819 688.309 181.17 687.063 181.17ZM687.063 179.861C687.777 179.861 688.338 179.634 688.746 179.181C689.165 178.728 689.392 178.076 689.426 177.226C689.437 177.113 689.443 176.897 689.443 176.58C689.443 176.263 689.437 176.047 689.426 175.934C689.392 175.084 689.165 174.432 688.746 173.979C688.338 173.526 687.777 173.299 687.063 173.299C686.349 173.299 685.782 173.526 685.363 173.979C684.943 174.432 684.722 175.084 684.7 175.934L684.683 176.58L684.7 177.226C684.722 178.076 684.943 178.728 685.363 179.181C685.782 179.634 686.349 179.861 687.063 179.861ZM693.611 184.23C693.498 184.23 693.402 184.19 693.322 184.111C693.254 184.043 693.22 183.952 693.22 183.839V172.551C693.22 172.438 693.254 172.347 693.322 172.279C693.402 172.2 693.498 172.16 693.611 172.16H694.393C694.507 172.16 694.597 172.2 694.665 172.279C694.745 172.347 694.784 172.438 694.784 172.551V173.299C695.419 172.426 696.348 171.99 697.572 171.99C698.762 171.99 699.652 172.364 700.241 173.112C700.842 173.86 701.165 174.823 701.21 176.002C701.222 176.127 701.227 176.319 701.227 176.58C701.227 176.841 701.222 177.033 701.21 177.158C701.165 178.325 700.842 179.289 700.241 180.048C699.641 180.796 698.751 181.17 697.572 181.17C696.394 181.17 695.476 180.745 694.818 179.895V183.839C694.818 183.952 694.784 184.043 694.716 184.111C694.648 184.19 694.558 184.23 694.444 184.23H693.611ZM697.215 179.793C698.02 179.793 698.604 179.544 698.966 179.045C699.34 178.546 699.544 177.889 699.578 177.073C699.59 176.96 699.595 176.795 699.595 176.58C699.595 174.438 698.802 173.367 697.215 173.367C696.433 173.367 695.844 173.628 695.447 174.149C695.062 174.659 694.852 175.271 694.818 175.985L694.801 176.631L694.818 177.294C694.841 177.963 695.056 178.546 695.464 179.045C695.872 179.544 696.456 179.793 697.215 179.793ZM710.583 181C708.792 181 707.897 180.003 707.897 178.008V173.52H706.571C706.458 173.52 706.361 173.486 706.282 173.418C706.214 173.339 706.18 173.242 706.18 173.129V172.551C706.18 172.438 706.214 172.347 706.282 172.279C706.361 172.2 706.458 172.16 706.571 172.16H707.897V169.321C707.897 169.208 707.931 169.117 707.999 169.049C708.078 168.97 708.175 168.93 708.288 168.93H709.087C709.2 168.93 709.291 168.97 709.359 169.049C709.438 169.117 709.478 169.208 709.478 169.321V172.16H711.586C711.699 172.16 711.79 172.2 711.858 172.279C711.937 172.347 711.977 172.438 711.977 172.551V173.129C711.977 173.242 711.937 173.339 711.858 173.418C711.79 173.486 711.699 173.52 711.586 173.52H709.478V177.889C709.478 178.456 709.574 178.886 709.767 179.181C709.96 179.464 710.277 179.606 710.719 179.606H711.756C711.869 179.606 711.96 179.646 712.028 179.725C712.107 179.793 712.147 179.884 712.147 179.997V180.609C712.147 180.722 712.107 180.819 712.028 180.898C711.96 180.966 711.869 181 711.756 181H710.583ZM714.181 181C714.067 181 713.971 180.966 713.892 180.898C713.824 180.819 713.79 180.722 713.79 180.609V169.321C713.79 169.208 713.824 169.117 713.892 169.049C713.971 168.97 714.067 168.93 714.181 168.93H715.031C715.144 168.93 715.235 168.97 715.303 169.049C715.382 169.117 715.422 169.208 715.422 169.321V173.282C715.75 172.863 716.136 172.545 716.578 172.33C717.02 172.103 717.569 171.99 718.227 171.99C719.315 171.99 720.159 172.341 720.76 173.044C721.372 173.735 721.678 174.659 721.678 175.815V180.609C721.678 180.722 721.638 180.819 721.559 180.898C721.491 180.966 721.4 181 721.287 181H720.437C720.323 181 720.227 180.966 720.148 180.898C720.08 180.819 720.046 180.722 720.046 180.609V175.9C720.046 175.095 719.847 174.472 719.451 174.03C719.065 173.588 718.504 173.367 717.768 173.367C717.054 173.367 716.481 173.594 716.051 174.047C715.631 174.489 715.422 175.107 715.422 175.9V180.609C715.422 180.722 715.382 180.819 715.303 180.898C715.235 180.966 715.144 181 715.031 181H714.181ZM727.668 181.17C726.501 181.17 725.566 180.813 724.863 180.099C724.172 179.374 723.792 178.388 723.724 177.141L723.707 176.563L723.724 176.002C723.803 174.778 724.189 173.803 724.88 173.078C725.583 172.353 726.506 171.99 727.651 171.99C728.909 171.99 729.884 172.392 730.575 173.197C731.266 173.99 731.612 175.067 731.612 176.427V176.716C731.612 176.829 731.572 176.926 731.493 177.005C731.425 177.073 731.334 177.107 731.221 177.107H725.339V177.26C725.373 177.997 725.594 178.626 726.002 179.147C726.421 179.657 726.971 179.912 727.651 179.912C728.172 179.912 728.597 179.81 728.926 179.606C729.266 179.391 729.515 179.17 729.674 178.943C729.776 178.807 729.85 178.728 729.895 178.705C729.952 178.671 730.048 178.654 730.184 178.654H731.017C731.119 178.654 731.204 178.682 731.272 178.739C731.34 178.796 731.374 178.875 731.374 178.977C731.374 179.226 731.215 179.527 730.898 179.878C730.592 180.229 730.156 180.535 729.589 180.796C729.034 181.045 728.393 181.17 727.668 181.17ZM729.997 175.934V175.883C729.997 175.101 729.782 174.466 729.351 173.979C728.932 173.48 728.365 173.231 727.651 173.231C726.937 173.231 726.37 173.48 725.951 173.979C725.543 174.466 725.339 175.101 725.339 175.883V175.934H729.997ZM738.22 181C738.106 181 738.01 180.966 737.931 180.898C737.863 180.819 737.829 180.722 737.829 180.609V169.321C737.829 169.208 737.863 169.117 737.931 169.049C738.01 168.97 738.106 168.93 738.22 168.93H739.07C739.183 168.93 739.274 168.97 739.342 169.049C739.421 169.117 739.461 169.208 739.461 169.321V173.282C739.789 172.863 740.175 172.545 740.617 172.33C741.059 172.103 741.608 171.99 742.266 171.99C743.354 171.99 744.198 172.341 744.799 173.044C745.411 173.735 745.717 174.659 745.717 175.815V180.609C745.717 180.722 745.677 180.819 745.598 180.898C745.53 180.966 745.439 181 745.326 181H744.476C744.362 181 744.266 180.966 744.187 180.898C744.119 180.819 744.085 180.722 744.085 180.609V175.9C744.085 175.095 743.886 174.472 743.49 174.03C743.104 173.588 742.543 173.367 741.807 173.367C741.093 173.367 740.52 173.594 740.09 174.047C739.67 174.489 739.461 175.107 739.461 175.9V180.609C739.461 180.722 739.421 180.819 739.342 180.898C739.274 180.966 739.183 181 739.07 181H738.22ZM751.792 181.17C750.545 181.17 749.576 180.819 748.885 180.116C748.205 179.413 747.842 178.478 747.797 177.311L747.78 176.58L747.797 175.849C747.842 174.693 748.211 173.764 748.902 173.061C749.593 172.347 750.557 171.99 751.792 171.99C753.027 171.99 753.991 172.347 754.682 173.061C755.373 173.764 755.742 174.693 755.787 175.849C755.798 175.974 755.804 176.217 755.804 176.58C755.804 176.943 755.798 177.186 755.787 177.311C755.742 178.478 755.373 179.413 754.682 180.116C754.002 180.819 753.039 181.17 751.792 181.17ZM751.792 179.861C752.506 179.861 753.067 179.634 753.475 179.181C753.894 178.728 754.121 178.076 754.155 177.226C754.166 177.113 754.172 176.897 754.172 176.58C754.172 176.263 754.166 176.047 754.155 175.934C754.121 175.084 753.894 174.432 753.475 173.979C753.067 173.526 752.506 173.299 751.792 173.299C751.078 173.299 750.511 173.526 750.092 173.979C749.673 174.432 749.452 175.084 749.429 175.934L749.412 176.58L749.429 177.226C749.452 178.076 749.673 178.728 750.092 179.181C750.511 179.634 751.078 179.861 751.792 179.861ZM761.301 181C759.51 181 758.615 180.003 758.615 178.008V173.52H757.289C757.175 173.52 757.079 173.486 757 173.418C756.932 173.339 756.898 173.242 756.898 173.129V172.551C756.898 172.438 756.932 172.347 757 172.279C757.079 172.2 757.175 172.16 757.289 172.16H758.615V169.321C758.615 169.208 758.649 169.117 758.717 169.049C758.796 168.97 758.892 168.93 759.006 168.93H759.805C759.918 168.93 760.009 168.97 760.077 169.049C760.156 169.117 760.196 169.208 760.196 169.321V172.16H762.304C762.417 172.16 762.508 172.2 762.576 172.279C762.655 172.347 762.695 172.438 762.695 172.551V173.129C762.695 173.242 762.655 173.339 762.576 173.418C762.508 173.486 762.417 173.52 762.304 173.52H760.196V177.889C760.196 178.456 760.292 178.886 760.485 179.181C760.677 179.464 760.995 179.606 761.437 179.606H762.474C762.587 179.606 762.678 179.646 762.746 179.725C762.825 179.793 762.865 179.884 762.865 179.997V180.609C762.865 180.722 762.825 180.819 762.746 180.898C762.678 180.966 762.587 181 762.474 181H761.301ZM767.941 181C766.151 181 765.255 180.003 765.255 178.008V173.52H763.929C763.816 173.52 763.72 173.486 763.64 173.418C763.572 173.339 763.538 173.242 763.538 173.129V172.551C763.538 172.438 763.572 172.347 763.64 172.279C763.72 172.2 763.816 172.16 763.929 172.16H765.255V169.321C765.255 169.208 765.289 169.117 765.357 169.049C765.437 168.97 765.533 168.93 765.646 168.93H766.445C766.559 168.93 766.649 168.97 766.717 169.049C766.797 169.117 766.836 169.208 766.836 169.321V172.16H768.944C769.058 172.16 769.148 172.2 769.216 172.279C769.296 172.347 769.335 172.438 769.335 172.551V173.129C769.335 173.242 769.296 173.339 769.216 173.418C769.148 173.486 769.058 173.52 768.944 173.52H766.836V177.889C766.836 178.456 766.933 178.886 767.125 179.181C767.318 179.464 767.635 179.606 768.077 179.606H769.114C769.228 179.606 769.318 179.646 769.386 179.725C769.466 179.793 769.505 179.884 769.505 179.997V180.609C769.505 180.722 769.466 180.819 769.386 180.898C769.318 180.966 769.228 181 769.114 181H767.941ZM774.667 181.17C773.5 181.17 772.565 180.813 771.862 180.099C771.171 179.374 770.791 178.388 770.723 177.141L770.706 176.563L770.723 176.002C770.802 174.778 771.188 173.803 771.879 173.078C772.582 172.353 773.505 171.99 774.65 171.99C775.908 171.99 776.883 172.392 777.574 173.197C778.265 173.99 778.611 175.067 778.611 176.427V176.716C778.611 176.829 778.571 176.926 778.492 177.005C778.424 177.073 778.333 177.107 778.22 177.107H772.338V177.26C772.372 177.997 772.593 178.626 773.001 179.147C773.42 179.657 773.97 179.912 774.65 179.912C775.171 179.912 775.596 179.81 775.925 179.606C776.265 179.391 776.514 179.17 776.673 178.943C776.775 178.807 776.849 178.728 776.894 178.705C776.951 178.671 777.047 178.654 777.183 178.654H778.016C778.118 178.654 778.203 178.682 778.271 178.739C778.339 178.796 778.373 178.875 778.373 178.977C778.373 179.226 778.214 179.527 777.897 179.878C777.591 180.229 777.155 180.535 776.588 180.796C776.033 181.045 775.392 181.17 774.667 181.17ZM776.996 175.934V175.883C776.996 175.101 776.781 174.466 776.35 173.979C775.931 173.48 775.364 173.231 774.65 173.231C773.936 173.231 773.369 173.48 772.95 173.979C772.542 174.466 772.338 175.101 772.338 175.883V175.934H776.996ZM783.704 181.17C782.91 181.17 782.242 181.045 781.698 180.796C781.165 180.535 780.763 180.241 780.491 179.912C780.23 179.583 780.1 179.311 780.1 179.096C780.1 178.983 780.139 178.898 780.219 178.841C780.309 178.773 780.4 178.739 780.491 178.739H781.256C781.369 178.739 781.471 178.796 781.562 178.909C781.834 179.226 782.128 179.476 782.446 179.657C782.763 179.838 783.188 179.929 783.721 179.929C784.31 179.929 784.786 179.816 785.149 179.589C785.523 179.351 785.71 179.028 785.71 178.62C785.71 178.348 785.63 178.127 785.472 177.957C785.324 177.776 785.064 177.623 784.69 177.498C784.327 177.362 783.783 177.215 783.058 177.056C782.072 176.841 781.369 176.529 780.95 176.121C780.542 175.713 780.338 175.186 780.338 174.54C780.338 174.109 780.462 173.701 780.712 173.316C780.972 172.919 781.346 172.602 781.834 172.364C782.332 172.115 782.927 171.99 783.619 171.99C784.344 171.99 784.962 172.109 785.472 172.347C785.982 172.585 786.361 172.868 786.611 173.197C786.871 173.514 787.002 173.781 787.002 173.996C787.002 174.098 786.962 174.183 786.883 174.251C786.815 174.319 786.73 174.353 786.628 174.353H785.914C785.778 174.353 785.664 174.296 785.574 174.183C785.392 173.968 785.234 173.803 785.098 173.69C784.973 173.565 784.786 173.458 784.537 173.367C784.299 173.276 783.993 173.231 783.619 173.231C783.075 173.231 782.655 173.35 782.361 173.588C782.066 173.815 781.919 174.115 781.919 174.489C781.919 174.727 781.981 174.931 782.106 175.101C782.23 175.26 782.468 175.407 782.82 175.543C783.182 175.679 783.704 175.821 784.384 175.968C785.46 176.195 786.22 176.523 786.662 176.954C787.115 177.373 787.342 177.912 787.342 178.569C787.342 179.056 787.2 179.498 786.917 179.895C786.633 180.292 786.214 180.603 785.659 180.83C785.115 181.057 784.463 181.17 783.704 181.17ZM792.744 181C790.953 181 790.058 180.003 790.058 178.008V173.52H788.732C788.619 173.52 788.522 173.486 788.443 173.418C788.375 173.339 788.341 173.242 788.341 173.129V172.551C788.341 172.438 788.375 172.347 788.443 172.279C788.522 172.2 788.619 172.16 788.732 172.16H790.058V169.321C790.058 169.208 790.092 169.117 790.16 169.049C790.239 168.97 790.336 168.93 790.449 168.93H791.248C791.361 168.93 791.452 168.97 791.52 169.049C791.599 169.117 791.639 169.208 791.639 169.321V172.16H793.747C793.86 172.16 793.951 172.2 794.019 172.279C794.098 172.347 794.138 172.438 794.138 172.551V173.129C794.138 173.242 794.098 173.339 794.019 173.418C793.951 173.486 793.86 173.52 793.747 173.52H791.639V177.889C791.639 178.456 791.735 178.886 791.928 179.181C792.121 179.464 792.438 179.606 792.88 179.606H793.917C794.03 179.606 794.121 179.646 794.189 179.725C794.268 179.793 794.308 179.884 794.308 179.997V180.609C794.308 180.722 794.268 180.819 794.189 180.898C794.121 180.966 794.03 181 793.917 181H792.744ZM803.331 181.17C802.152 181.17 801.262 180.785 800.662 180.014C800.061 179.243 799.744 178.269 799.71 177.09L799.693 176.58L799.71 176.07C799.744 174.903 800.061 173.934 800.662 173.163C801.262 172.381 802.152 171.99 803.331 171.99C804.498 171.99 805.416 172.404 806.085 173.231V169.321C806.085 169.208 806.119 169.117 806.187 169.049C806.266 168.97 806.362 168.93 806.476 168.93H807.292C807.405 168.93 807.496 168.97 807.564 169.049C807.643 169.117 807.683 169.208 807.683 169.321V180.609C807.683 180.722 807.643 180.819 807.564 180.898C807.496 180.966 807.405 181 807.292 181H806.527C806.413 181 806.317 180.966 806.238 180.898C806.17 180.819 806.136 180.722 806.136 180.609V179.895C805.478 180.745 804.543 181.17 803.331 181.17ZM803.688 179.793C804.47 179.793 805.053 179.538 805.439 179.028C805.835 178.507 806.051 177.889 806.085 177.175C806.096 177.05 806.102 176.835 806.102 176.529C806.102 176.212 806.096 175.991 806.085 175.866C806.062 175.197 805.847 174.614 805.439 174.115C805.031 173.616 804.447 173.367 803.688 173.367C802.883 173.367 802.294 173.616 801.92 174.115C801.557 174.614 801.359 175.271 801.325 176.087L801.308 176.58C801.308 178.722 802.101 179.793 803.688 179.793ZM813.747 181.17C812.58 181.17 811.645 180.813 810.942 180.099C810.251 179.374 809.871 178.388 809.803 177.141L809.786 176.563L809.803 176.002C809.882 174.778 810.268 173.803 810.959 173.078C811.662 172.353 812.585 171.99 813.73 171.99C814.988 171.99 815.963 172.392 816.654 173.197C817.345 173.99 817.691 175.067 817.691 176.427V176.716C817.691 176.829 817.651 176.926 817.572 177.005C817.504 177.073 817.413 177.107 817.3 177.107H811.418V177.26C811.452 177.997 811.673 178.626 812.081 179.147C812.5 179.657 813.05 179.912 813.73 179.912C814.251 179.912 814.676 179.81 815.005 179.606C815.345 179.391 815.594 179.17 815.753 178.943C815.855 178.807 815.929 178.728 815.974 178.705C816.031 178.671 816.127 178.654 816.263 178.654H817.096C817.198 178.654 817.283 178.682 817.351 178.739C817.419 178.796 817.453 178.875 817.453 178.977C817.453 179.226 817.294 179.527 816.977 179.878C816.671 180.229 816.235 180.535 815.668 180.796C815.113 181.045 814.472 181.17 813.747 181.17ZM816.076 175.934V175.883C816.076 175.101 815.861 174.466 815.43 173.979C815.011 173.48 814.444 173.231 813.73 173.231C813.016 173.231 812.449 173.48 812.03 173.979C811.622 174.466 811.418 175.101 811.418 175.883V175.934H816.076ZM822.784 181.17C821.99 181.17 821.322 181.045 820.778 180.796C820.245 180.535 819.843 180.241 819.571 179.912C819.31 179.583 819.18 179.311 819.18 179.096C819.18 178.983 819.219 178.898 819.299 178.841C819.389 178.773 819.48 178.739 819.571 178.739H820.336C820.449 178.739 820.551 178.796 820.642 178.909C820.914 179.226 821.208 179.476 821.526 179.657C821.843 179.838 822.268 179.929 822.801 179.929C823.39 179.929 823.866 179.816 824.229 179.589C824.603 179.351 824.79 179.028 824.79 178.62C824.79 178.348 824.71 178.127 824.552 177.957C824.404 177.776 824.144 177.623 823.77 177.498C823.407 177.362 822.863 177.215 822.138 177.056C821.152 176.841 820.449 176.529 820.03 176.121C819.622 175.713 819.418 175.186 819.418 174.54C819.418 174.109 819.542 173.701 819.792 173.316C820.052 172.919 820.426 172.602 820.914 172.364C821.412 172.115 822.007 171.99 822.699 171.99C823.424 171.99 824.042 172.109 824.552 172.347C825.062 172.585 825.441 172.868 825.691 173.197C825.951 173.514 826.082 173.781 826.082 173.996C826.082 174.098 826.042 174.183 825.963 174.251C825.895 174.319 825.81 174.353 825.708 174.353H824.994C824.858 174.353 824.744 174.296 824.654 174.183C824.472 173.968 824.314 173.803 824.178 173.69C824.053 173.565 823.866 173.458 823.617 173.367C823.379 173.276 823.073 173.231 822.699 173.231C822.155 173.231 821.735 173.35 821.441 173.588C821.146 173.815 820.999 174.115 820.999 174.489C820.999 174.727 821.061 174.931 821.186 175.101C821.31 175.26 821.548 175.407 821.9 175.543C822.262 175.679 822.784 175.821 823.464 175.968C824.54 176.195 825.3 176.523 825.742 176.954C826.195 177.373 826.422 177.912 826.422 178.569C826.422 179.056 826.28 179.498 825.997 179.895C825.713 180.292 825.294 180.603 824.739 180.83C824.195 181.057 823.543 181.17 822.784 181.17ZM828.645 170.511C828.532 170.511 828.435 170.477 828.356 170.409C828.288 170.33 828.254 170.233 828.254 170.12V169.202C828.254 169.089 828.288 168.992 828.356 168.913C828.435 168.834 828.532 168.794 828.645 168.794H829.716C829.829 168.794 829.926 168.834 830.005 168.913C830.084 168.992 830.124 169.089 830.124 169.202V170.12C830.124 170.233 830.084 170.33 830.005 170.409C829.926 170.477 829.829 170.511 829.716 170.511H828.645ZM828.781 181C828.668 181 828.571 180.966 828.492 180.898C828.424 180.819 828.39 180.722 828.39 180.609V172.551C828.39 172.438 828.424 172.347 828.492 172.279C828.571 172.2 828.668 172.16 828.781 172.16H829.597C829.71 172.16 829.801 172.2 829.869 172.279C829.948 172.347 829.988 172.438 829.988 172.551V180.609C829.988 180.722 829.948 180.819 829.869 180.898C829.801 180.966 829.71 181 829.597 181H828.781ZM836.128 184.74C835.199 184.74 834.451 184.581 833.884 184.264C833.317 183.958 832.915 183.607 832.677 183.21C832.439 182.813 832.309 182.456 832.286 182.139C832.275 182.026 832.309 181.929 832.388 181.85C832.479 181.771 832.575 181.731 832.677 181.731H833.493C833.595 181.731 833.68 181.754 833.748 181.799C833.816 181.856 833.873 181.952 833.918 182.088C834.054 182.451 834.275 182.762 834.581 183.023C834.898 183.295 835.386 183.431 836.043 183.431C836.882 183.431 837.499 183.25 837.896 182.887C838.293 182.536 838.491 181.907 838.491 181V179.844C838.196 180.218 837.822 180.518 837.369 180.745C836.916 180.96 836.377 181.068 835.754 181.068C834.553 181.068 833.652 180.688 833.051 179.929C832.462 179.158 832.15 178.184 832.116 177.005L832.099 176.529L832.116 176.07C832.15 174.903 832.467 173.934 833.068 173.163C833.669 172.381 834.564 171.99 835.754 171.99C836.944 171.99 837.873 172.426 838.542 173.299V172.568C838.542 172.455 838.576 172.358 838.644 172.279C838.723 172.2 838.82 172.16 838.933 172.16H839.715C839.828 172.16 839.925 172.2 840.004 172.279C840.083 172.358 840.123 172.455 840.123 172.568V180.813C840.123 183.431 838.791 184.74 836.128 184.74ZM836.094 179.708C836.865 179.708 837.448 179.453 837.845 178.943C838.242 178.433 838.457 177.827 838.491 177.124C838.502 177.022 838.508 176.824 838.508 176.529C838.508 176.246 838.502 176.053 838.491 175.951C838.457 175.248 838.242 174.642 837.845 174.132C837.46 173.622 836.876 173.367 836.094 173.367C835.289 173.367 834.706 173.616 834.343 174.115C833.98 174.614 833.782 175.271 833.748 176.087L833.731 176.529L833.748 176.988C833.782 177.793 833.98 178.45 834.343 178.96C834.706 179.459 835.289 179.708 836.094 179.708ZM843.042 181C842.928 181 842.832 180.966 842.753 180.898C842.685 180.819 842.651 180.722 842.651 180.609V172.551C842.651 172.438 842.685 172.347 842.753 172.279C842.832 172.2 842.928 172.16 843.042 172.16H843.841C843.954 172.16 844.045 172.2 844.113 172.279C844.192 172.347 844.232 172.438 844.232 172.551V173.299C844.56 172.88 844.946 172.557 845.388 172.33C845.841 172.103 846.402 171.99 847.071 171.99C848.159 171.99 849.003 172.341 849.604 173.044C850.216 173.735 850.522 174.659 850.522 175.815V180.609C850.522 180.722 850.482 180.819 850.403 180.898C850.335 180.966 850.244 181 850.131 181H849.281C849.167 181 849.071 180.966 848.992 180.898C848.924 180.819 848.89 180.722 848.89 180.609V175.9C848.89 175.095 848.691 174.472 848.295 174.03C847.909 173.588 847.348 173.367 846.612 173.367C845.898 173.367 845.331 173.594 844.912 174.047C844.492 174.489 844.283 175.107 844.283 175.9V180.609C844.283 180.722 844.243 180.819 844.164 180.898C844.096 180.966 844.005 181 843.892 181H843.042ZM856.02 181.17C855.227 181.17 854.558 181.045 854.014 180.796C853.481 180.535 853.079 180.241 852.807 179.912C852.546 179.583 852.416 179.311 852.416 179.096C852.416 178.983 852.456 178.898 852.535 178.841C852.626 178.773 852.716 178.739 852.807 178.739H853.572C853.685 178.739 853.787 178.796 853.878 178.909C854.15 179.226 854.445 179.476 854.762 179.657C855.079 179.838 855.504 179.929 856.037 179.929C856.626 179.929 857.102 179.816 857.465 179.589C857.839 179.351 858.026 179.028 858.026 178.62C858.026 178.348 857.947 178.127 857.788 177.957C857.641 177.776 857.38 177.623 857.006 177.498C856.643 177.362 856.099 177.215 855.374 177.056C854.388 176.841 853.685 176.529 853.266 176.121C852.858 175.713 852.654 175.186 852.654 174.54C852.654 174.109 852.779 173.701 853.028 173.316C853.289 172.919 853.663 172.602 854.15 172.364C854.649 172.115 855.244 171.99 855.935 171.99C856.66 171.99 857.278 172.109 857.788 172.347C858.298 172.585 858.678 172.868 858.927 173.197C859.188 173.514 859.318 173.781 859.318 173.996C859.318 174.098 859.278 174.183 859.199 174.251C859.131 174.319 859.046 174.353 858.944 174.353H858.23C858.094 174.353 857.981 174.296 857.89 174.183C857.709 173.968 857.55 173.803 857.414 173.69C857.289 173.565 857.102 173.458 856.853 173.367C856.615 173.276 856.309 173.231 855.935 173.231C855.391 173.231 854.972 173.35 854.677 173.588C854.382 173.815 854.235 174.115 854.235 174.489C854.235 174.727 854.297 174.931 854.422 175.101C854.547 175.26 854.785 175.407 855.136 175.543C855.499 175.679 856.02 175.821 856.7 175.968C857.777 176.195 858.536 176.523 858.978 176.954C859.431 177.373 859.658 177.912 859.658 178.569C859.658 179.056 859.516 179.498 859.233 179.895C858.95 180.292 858.53 180.603 857.975 180.83C857.431 181.057 856.779 181.17 856.02 181.17ZM869.414 181.17C868.167 181.17 867.198 180.819 866.507 180.116C865.827 179.413 865.464 178.478 865.419 177.311L865.402 176.58L865.419 175.849C865.464 174.693 865.833 173.764 866.524 173.061C867.215 172.347 868.179 171.99 869.414 171.99C870.649 171.99 871.613 172.347 872.304 173.061C872.995 173.764 873.364 174.693 873.409 175.849C873.42 175.974 873.426 176.217 873.426 176.58C873.426 176.943 873.42 177.186 873.409 177.311C873.364 178.478 872.995 179.413 872.304 180.116C871.624 180.819 870.661 181.17 869.414 181.17ZM869.414 179.861C870.128 179.861 870.689 179.634 871.097 179.181C871.516 178.728 871.743 178.076 871.777 177.226C871.788 177.113 871.794 176.897 871.794 176.58C871.794 176.263 871.788 176.047 871.777 175.934C871.743 175.084 871.516 174.432 871.097 173.979C870.689 173.526 870.128 173.299 869.414 173.299C868.7 173.299 868.133 173.526 867.714 173.979C867.295 174.432 867.074 175.084 867.051 175.934L867.034 176.58L867.051 177.226C867.074 178.076 867.295 178.728 867.714 179.181C868.133 179.634 868.7 179.861 869.414 179.861ZM878.853 181.17C877.776 181.17 876.943 180.824 876.354 180.133C875.765 179.43 875.47 178.501 875.47 177.345V172.551C875.47 172.438 875.504 172.347 875.572 172.279C875.651 172.2 875.748 172.16 875.861 172.16H876.711C876.824 172.16 876.915 172.2 876.983 172.279C877.062 172.347 877.102 172.438 877.102 172.551V177.26C877.102 178.949 877.839 179.793 879.312 179.793C880.026 179.793 880.593 179.572 881.012 179.13C881.431 178.677 881.641 178.053 881.641 177.26V172.551C881.641 172.438 881.675 172.347 881.743 172.279C881.822 172.2 881.919 172.16 882.032 172.16H882.882C882.995 172.16 883.086 172.2 883.154 172.279C883.222 172.347 883.256 172.438 883.256 172.551V180.609C883.256 180.722 883.222 180.819 883.154 180.898C883.086 180.966 882.995 181 882.882 181H882.083C881.97 181 881.873 180.966 881.794 180.898C881.726 180.819 881.692 180.722 881.692 180.609V179.861C881.375 180.292 880.989 180.62 880.536 180.847C880.083 181.062 879.522 181.17 878.853 181.17ZM886.172 181C886.059 181 885.963 180.966 885.883 180.898C885.815 180.819 885.781 180.722 885.781 180.609V172.568C885.781 172.455 885.815 172.358 885.883 172.279C885.963 172.2 886.059 172.16 886.172 172.16H886.954C887.068 172.16 887.164 172.2 887.243 172.279C887.323 172.358 887.362 172.455 887.362 172.568V173.316C887.827 172.545 888.62 172.16 889.742 172.16H890.405C890.519 172.16 890.609 172.2 890.677 172.279C890.757 172.347 890.796 172.438 890.796 172.551V173.248C890.796 173.361 890.757 173.452 890.677 173.52C890.609 173.588 890.519 173.622 890.405 173.622H889.385C888.773 173.622 888.292 173.803 887.94 174.166C887.589 174.517 887.413 174.999 887.413 175.611V180.609C887.413 180.722 887.374 180.819 887.294 180.898C887.215 180.966 887.119 181 887.005 181H886.172ZM899.578 181.17C898.365 181.17 897.413 180.83 896.722 180.15C896.042 179.459 895.679 178.495 895.634 177.26L895.617 176.58L895.634 175.9C895.679 174.665 896.042 173.707 896.722 173.027C897.413 172.336 898.365 171.99 899.578 171.99C900.394 171.99 901.085 172.137 901.652 172.432C902.219 172.727 902.638 173.089 902.91 173.52C903.193 173.951 903.346 174.381 903.369 174.812C903.38 174.925 903.346 175.016 903.267 175.084C903.188 175.152 903.091 175.186 902.978 175.186H902.162C902.049 175.186 901.964 175.163 901.907 175.118C901.85 175.073 901.794 174.982 901.737 174.846C901.544 174.302 901.272 173.917 900.921 173.69C900.57 173.452 900.128 173.333 899.595 173.333C898.892 173.333 898.331 173.554 897.912 173.996C897.504 174.427 897.283 175.09 897.249 175.985L897.232 176.597L897.249 177.175C897.283 178.082 897.504 178.75 897.912 179.181C898.32 179.612 898.881 179.827 899.595 179.827C900.128 179.827 900.57 179.714 900.921 179.487C901.272 179.249 901.544 178.858 901.737 178.314C901.794 178.178 901.85 178.087 901.907 178.042C901.964 177.985 902.049 177.957 902.162 177.957H902.978C903.091 177.957 903.188 177.997 903.267 178.076C903.346 178.144 903.38 178.235 903.369 178.348C903.346 178.767 903.193 179.198 902.91 179.64C902.638 180.071 902.219 180.433 901.652 180.728C901.097 181.023 900.405 181.17 899.578 181.17ZM905.796 181C905.683 181 905.586 180.966 905.507 180.898C905.439 180.819 905.405 180.722 905.405 180.609V169.321C905.405 169.208 905.439 169.117 905.507 169.049C905.586 168.97 905.683 168.93 905.796 168.93H906.595C906.708 168.93 906.799 168.97 906.867 169.049C906.946 169.117 906.986 169.208 906.986 169.321V180.609C906.986 180.722 906.946 180.819 906.867 180.898C906.799 180.966 906.708 181 906.595 181H905.796ZM909.777 170.511C909.663 170.511 909.567 170.477 909.488 170.409C909.42 170.33 909.386 170.233 909.386 170.12V169.202C909.386 169.089 909.42 168.992 909.488 168.913C909.567 168.834 909.663 168.794 909.777 168.794H910.848C910.961 168.794 911.057 168.834 911.137 168.913C911.216 168.992 911.256 169.089 911.256 169.202V170.12C911.256 170.233 911.216 170.33 911.137 170.409C911.057 170.477 910.961 170.511 910.848 170.511H909.777ZM909.913 181C909.799 181 909.703 180.966 909.624 180.898C909.556 180.819 909.522 180.722 909.522 180.609V172.551C909.522 172.438 909.556 172.347 909.624 172.279C909.703 172.2 909.799 172.16 909.913 172.16H910.729C910.842 172.16 910.933 172.2 911.001 172.279C911.08 172.347 911.12 172.438 911.12 172.551V180.609C911.12 180.722 911.08 180.819 911.001 180.898C910.933 180.966 910.842 181 910.729 181H909.913ZM917.175 181.17C916.008 181.17 915.073 180.813 914.37 180.099C913.679 179.374 913.299 178.388 913.231 177.141L913.214 176.563L913.231 176.002C913.31 174.778 913.696 173.803 914.387 173.078C915.09 172.353 916.013 171.99 917.158 171.99C918.416 171.99 919.391 172.392 920.082 173.197C920.773 173.99 921.119 175.067 921.119 176.427V176.716C921.119 176.829 921.079 176.926 921 177.005C920.932 177.073 920.841 177.107 920.728 177.107H914.846V177.26C914.88 177.997 915.101 178.626 915.509 179.147C915.928 179.657 916.478 179.912 917.158 179.912C917.679 179.912 918.104 179.81 918.433 179.606C918.773 179.391 919.022 179.17 919.181 178.943C919.283 178.807 919.357 178.728 919.402 178.705C919.459 178.671 919.555 178.654 919.691 178.654H920.524C920.626 178.654 920.711 178.682 920.779 178.739C920.847 178.796 920.881 178.875 920.881 178.977C920.881 179.226 920.722 179.527 920.405 179.878C920.099 180.229 919.663 180.535 919.096 180.796C918.541 181.045 917.9 181.17 917.175 181.17ZM919.504 175.934V175.883C919.504 175.101 919.289 174.466 918.858 173.979C918.439 173.48 917.872 173.231 917.158 173.231C916.444 173.231 915.877 173.48 915.458 173.979C915.05 174.466 914.846 175.101 914.846 175.883V175.934H919.504ZM923.543 181C923.429 181 923.333 180.966 923.254 180.898C923.186 180.819 923.152 180.722 923.152 180.609V172.551C923.152 172.438 923.186 172.347 923.254 172.279C923.333 172.2 923.429 172.16 923.543 172.16H924.342C924.455 172.16 924.546 172.2 924.614 172.279C924.693 172.347 924.733 172.438 924.733 172.551V173.299C925.061 172.88 925.447 172.557 925.889 172.33C926.342 172.103 926.903 171.99 927.572 171.99C928.66 171.99 929.504 172.341 930.105 173.044C930.717 173.735 931.023 174.659 931.023 175.815V180.609C931.023 180.722 930.983 180.819 930.904 180.898C930.836 180.966 930.745 181 930.632 181H929.782C929.668 181 929.572 180.966 929.493 180.898C929.425 180.819 929.391 180.722 929.391 180.609V175.9C929.391 175.095 929.192 174.472 928.796 174.03C928.41 173.588 927.849 173.367 927.113 173.367C926.399 173.367 925.832 173.594 925.413 174.047C924.993 174.489 924.784 175.107 924.784 175.9V180.609C924.784 180.722 924.744 180.819 924.665 180.898C924.597 180.966 924.506 181 924.393 181H923.543ZM936.796 181C935.005 181 934.11 180.003 934.11 178.008V173.52H932.784C932.671 173.52 932.574 173.486 932.495 173.418C932.427 173.339 932.393 173.242 932.393 173.129V172.551C932.393 172.438 932.427 172.347 932.495 172.279C932.574 172.2 932.671 172.16 932.784 172.16H934.11V169.321C934.11 169.208 934.144 169.117 934.212 169.049C934.291 168.97 934.388 168.93 934.501 168.93H935.3C935.413 168.93 935.504 168.97 935.572 169.049C935.651 169.117 935.691 169.208 935.691 169.321V172.16H937.799C937.912 172.16 938.003 172.2 938.071 172.279C938.15 172.347 938.19 172.438 938.19 172.551V173.129C938.19 173.242 938.15 173.339 938.071 173.418C938.003 173.486 937.912 173.52 937.799 173.52H935.691V177.889C935.691 178.456 935.787 178.886 935.98 179.181C936.173 179.464 936.49 179.606 936.932 179.606H937.969C938.082 179.606 938.173 179.646 938.241 179.725C938.32 179.793 938.36 179.884 938.36 179.997V180.609C938.36 180.722 938.32 180.819 938.241 180.898C938.173 180.966 938.082 181 937.969 181H936.796ZM943.046 181.17C942.252 181.17 941.584 181.045 941.04 180.796C940.507 180.535 940.105 180.241 939.833 179.912C939.572 179.583 939.442 179.311 939.442 179.096C939.442 178.983 939.481 178.898 939.561 178.841C939.651 178.773 939.742 178.739 939.833 178.739H940.598C940.711 178.739 940.813 178.796 940.904 178.909C941.176 179.226 941.47 179.476 941.788 179.657C942.105 179.838 942.53 179.929 943.063 179.929C943.652 179.929 944.128 179.816 944.491 179.589C944.865 179.351 945.052 179.028 945.052 178.62C945.052 178.348 944.972 178.127 944.814 177.957C944.666 177.776 944.406 177.623 944.032 177.498C943.669 177.362 943.125 177.215 942.4 177.056C941.414 176.841 940.711 176.529 940.292 176.121C939.884 175.713 939.68 175.186 939.68 174.54C939.68 174.109 939.804 173.701 940.054 173.316C940.314 172.919 940.688 172.602 941.176 172.364C941.674 172.115 942.269 171.99 942.961 171.99C943.686 171.99 944.304 172.109 944.814 172.347C945.324 172.585 945.703 172.868 945.953 173.197C946.213 173.514 946.344 173.781 946.344 173.996C946.344 174.098 946.304 174.183 946.225 174.251C946.157 174.319 946.072 174.353 945.97 174.353H945.256C945.12 174.353 945.006 174.296 944.916 174.183C944.734 173.968 944.576 173.803 944.44 173.69C944.315 173.565 944.128 173.458 943.879 173.367C943.641 173.276 943.335 173.231 942.961 173.231C942.417 173.231 941.997 173.35 941.703 173.588C941.408 173.815 941.261 174.115 941.261 174.489C941.261 174.727 941.323 174.931 941.448 175.101C941.572 175.26 941.81 175.407 942.162 175.543C942.524 175.679 943.046 175.821 943.726 175.968C944.802 176.195 945.562 176.523 946.004 176.954C946.457 177.373 946.684 177.912 946.684 178.569C946.684 179.056 946.542 179.498 946.259 179.895C945.975 180.292 945.556 180.603 945.001 180.83C944.457 181.057 943.805 181.17 943.046 181.17ZM953.227 181C953.113 181 953.017 180.966 952.938 180.898C952.87 180.819 952.836 180.722 952.836 180.609V169.321C952.836 169.208 952.87 169.117 952.938 169.049C953.017 168.97 953.113 168.93 953.227 168.93H954.026C954.139 168.93 954.23 168.97 954.298 169.049C954.377 169.117 954.417 169.208 954.417 169.321V180.609C954.417 180.722 954.377 180.819 954.298 180.898C954.23 180.966 954.139 181 954.026 181H953.227ZM960.573 181.17C959.327 181.17 958.358 180.819 957.666 180.116C956.986 179.413 956.624 178.478 956.578 177.311L956.561 176.58L956.578 175.849C956.624 174.693 956.992 173.764 957.683 173.061C958.375 172.347 959.338 171.99 960.573 171.99C961.809 171.99 962.772 172.347 963.463 173.061C964.155 173.764 964.523 174.693 964.568 175.849C964.58 175.974 964.585 176.217 964.585 176.58C964.585 176.943 964.58 177.186 964.568 177.311C964.523 178.478 964.155 179.413 963.463 180.116C962.783 180.819 961.82 181.17 960.573 181.17ZM960.573 179.861C961.287 179.861 961.848 179.634 962.256 179.181C962.676 178.728 962.902 178.076 962.936 177.226C962.948 177.113 962.953 176.897 962.953 176.58C962.953 176.263 962.948 176.047 962.936 175.934C962.902 175.084 962.676 174.432 962.256 173.979C961.848 173.526 961.287 173.299 960.573 173.299C959.859 173.299 959.293 173.526 958.873 173.979C958.454 174.432 958.233 175.084 958.21 175.934L958.193 176.58L958.21 177.226C958.233 178.076 958.454 178.728 958.873 179.181C959.293 179.634 959.859 179.861 960.573 179.861ZM969.476 181C969.181 181 968.971 180.858 968.847 180.575L965.702 172.687L965.668 172.517C965.668 172.415 965.702 172.33 965.77 172.262C965.838 172.194 965.923 172.16 966.025 172.16H966.841C967.033 172.16 967.175 172.256 967.266 172.449L969.85 179.147L972.434 172.449C972.536 172.256 972.672 172.16 972.842 172.16H973.675C973.765 172.16 973.845 172.194 973.913 172.262C973.992 172.33 974.032 172.415 974.032 172.517L973.998 172.687L970.836 180.575C970.711 180.858 970.501 181 970.207 181H969.476ZM979.032 181.17C977.865 181.17 976.93 180.813 976.227 180.099C975.536 179.374 975.156 178.388 975.088 177.141L975.071 176.563L975.088 176.002C975.168 174.778 975.553 173.803 976.244 173.078C976.947 172.353 977.871 171.99 979.015 171.99C980.273 171.99 981.248 172.392 981.939 173.197C982.631 173.99 982.976 175.067 982.976 176.427V176.716C982.976 176.829 982.937 176.926 982.857 177.005C982.789 177.073 982.699 177.107 982.585 177.107H976.703V177.26C976.737 177.997 976.958 178.626 977.366 179.147C977.786 179.657 978.335 179.912 979.015 179.912C979.537 179.912 979.962 179.81 980.29 179.606C980.63 179.391 980.88 179.17 981.038 178.943C981.14 178.807 981.214 178.728 981.259 178.705C981.316 178.671 981.412 178.654 981.548 178.654H982.381C982.483 178.654 982.568 178.682 982.636 178.739C982.704 178.796 982.738 178.875 982.738 178.977C982.738 179.226 982.58 179.527 982.262 179.878C981.956 180.229 981.52 180.535 980.953 180.796C980.398 181.045 979.758 181.17 979.032 181.17ZM981.361 175.934V175.883C981.361 175.101 981.146 174.466 980.715 173.979C980.296 173.48 979.729 173.231 979.015 173.231C978.301 173.231 977.735 173.48 977.315 173.979C976.907 174.466 976.703 175.101 976.703 175.883V175.934H981.361Z" fill="white"/>
<rect x="755" y="136" width="136" height="2" fill="white"/>
<defs>
<filter id="filter0_dd" x="0" y="0" width="1644" height="259" filterUnits="userSpaceOnUse" color-interpolation-filters="sRGB">
<feFlood flood-opacity="0" result="BackgroundImageFix"/>
<feColorMatrix in="SourceAlpha" type="matrix" values="0 0 0 0 0 0 0 0 0 0 0 0 0 0 0 0 0 0 127 0"/>
<feOffset dx="5" dy="5"/>
<feGaussianBlur stdDeviation="3.5"/>
<feColorMatrix type="matrix" values="0 0 0 0 0 0 0 0 0 0 0 0 0 0 0 0 0 0 0.05 0"/>
<feBlend mode="normal" in2="BackgroundImageFix" result="effect1_dropShadow"/>
<feColorMatrix in="SourceAlpha" type="matrix" values="0 0 0 0 0 0 0 0 0 0 0 0 0 0 0 0 0 0 127 0"/>
<feOffset dx="-5"/>
<feGaussianBlur stdDeviation="3.5"/>
<feColorMatrix type="matrix" values="0 0 0 0 0 0 0 0 0 0 0 0 0 0 0 0 0 0 0.05 0"/>
<feBlend mode="normal" in2="effect1_dropShadow" result="effect2_dropShadow"/>
<feBlend mode="normal" in="SourceGraphic" in2="effect2_dropShadow" result="shape"/>
</filter>
</defs>
</svg>
