<svg width="22" height="22" viewBox="0 0 22 22" fill="none" xmlns="http://www.w3.org/2000/svg">
<path d="M7.73802 22C8.72422 22 9.5237 21.2005 9.5237 20.2143C9.5237 19.2281 8.72422 18.4286 7.73802 18.4286C6.75181 18.4286 5.95233 19.2281 5.95233 20.2143C5.95233 21.2005 6.75181 22 7.73802 22Z" fill="#2196F3"/>
<path d="M14.8807 22C15.8669 22 16.6664 21.2005 16.6664 20.2143C16.6664 19.2281 15.8669 18.4286 14.8807 18.4286C13.8945 18.4286 13.095 19.2281 13.095 20.2143C13.095 21.2005 13.8945 22 14.8807 22Z" fill="#2196F3"/>
<path d="M18.9092 6.73839C18.7961 6.60267 18.6283 6.5241 18.4521 6.5241H4.46183L3.94398 4.58485C3.87494 4.32414 3.63923 4.14319 3.36899 4.14319H0.595229C0.266662 4.14319 0 4.40985 0 4.73842C0 5.06698 0.266662 5.33365 0.595229 5.33365H2.91186L5.97252 16.7966C6.04157 17.0573 6.27728 17.2382 6.54751 17.2382H16.0712C16.3997 17.2382 16.6664 16.9716 16.6664 16.643C16.6664 16.3144 16.3997 16.0478 16.0712 16.0478H7.00465L6.67013 14.7954L17.2914 14.2609C17.5664 14.2466 17.7973 14.0454 17.8473 13.774L19.0378 7.22647C19.0699 7.05148 19.0223 6.87291 18.9092 6.73839ZM13.6903 11.2859H10.1189C9.79032 11.2859 9.52366 11.0193 9.52366 10.6907C9.52366 10.3621 9.79032 10.0955 10.1189 10.0955H13.6903C14.0188 10.0955 14.2855 10.3621 14.2855 10.6907C14.2855 11.0193 14.0188 11.2859 13.6903 11.2859Z" fill="#2196F3"/>
<rect x="9.42859" y="10.024" width="4.95238" height="1.33333" fill="#2196F3"/>
<path d="M21.3771 5.54853C21.2086 5.42425 20.9962 5.26902 20.9705 5.16759C20.9813 4.97126 21.0374 4.78011 21.1343 4.60905C21.2829 4.26811 21.4362 3.9148 21.2657 3.621C21.0952 3.3272 20.7076 3.27959 20.3348 3.24006C20.1415 3.23877 19.9512 3.19332 19.7782 3.10721C19.6919 2.9336 19.6466 2.74252 19.6458 2.54867C19.6039 2.17583 19.5605 1.79014 19.2648 1.61776C18.9691 1.44538 18.6153 1.59633 18.2744 1.74679C18.1032 1.84368 17.9119 1.89973 17.7154 1.9106C17.6126 1.88299 17.4578 1.67251 17.3345 1.50395C17.1183 1.21253 16.875 0.88208 16.5235 0.88208C16.1721 0.88208 15.9288 1.21253 15.7141 1.50395C15.5893 1.67298 15.4345 1.88488 15.3331 1.91107C15.1368 1.89924 14.9457 1.84326 14.7741 1.74726C14.4313 1.59631 14.078 1.44585 13.7851 1.61537C13.4923 1.78489 13.4432 2.17344 13.4013 2.54865C13.4 2.74183 13.3547 2.93217 13.2689 3.10529C13.0963 3.19017 12.9066 3.23477 12.7142 3.23575C12.3409 3.27765 11.9547 3.32099 11.7828 3.61669C11.6109 3.91239 11.7619 4.26574 11.9124 4.60715C12.0096 4.77877 12.0657 4.97062 12.0762 5.16759C12.0486 5.27045 11.8381 5.42568 11.6695 5.54853C11.3781 5.76281 11.0477 6.00661 11.0477 6.35802C11.0477 6.70943 11.3781 6.95324 11.67 7.16751C11.8386 7.29179 12.051 7.44703 12.0767 7.54845C12.0659 7.74478 12.0098 7.93593 11.9129 8.10699C11.7643 8.44794 11.611 8.80124 11.7814 9.09505C11.9519 9.38885 12.3395 9.43646 12.7124 9.47599C12.9056 9.47728 13.096 9.52272 13.269 9.60884C13.3552 9.78244 13.4005 9.97353 13.4014 10.1674C13.4433 10.5402 13.4866 10.9259 13.7823 11.0983C14.078 11.2707 14.429 11.1154 14.7704 10.9669C14.9433 10.871 15.1358 10.8157 15.3332 10.805C15.4361 10.8326 15.5908 11.0431 15.7141 11.2116C15.9289 11.503 16.1722 11.8335 16.5236 11.8335C16.875 11.8335 17.1184 11.503 17.3331 11.2116C17.4579 11.0426 17.6126 10.8307 17.7141 10.8045C17.9105 10.8156 18.1017 10.8716 18.2731 10.9683C18.614 11.1169 18.9673 11.2693 19.2606 11.1002C19.5539 10.9312 19.6025 10.5421 19.6444 10.1688C19.6458 9.97565 19.6911 9.7853 19.7768 9.61218C19.9498 9.52661 20.14 9.4815 20.333 9.48029C20.7063 9.4384 21.0925 9.39505 21.2643 9.09935C21.4362 8.80365 21.281 8.45271 21.1329 8.1113C21.036 7.93881 20.9806 7.7461 20.971 7.54847C20.9986 7.44562 21.2091 7.29038 21.3777 7.16753C21.6691 6.95279 22 6.70899 22 6.35805C22 6.0071 21.669 5.76281 21.3771 5.54853Z" fill="#FAFAFA"/>
<path d="M15.0951 7.54978C15.0201 7.54978 14.9495 7.51449 14.9046 7.45454L13.9046 6.12128V7.31169C13.9046 7.44318 13.798 7.54978 13.6666 7.54978C13.5351 7.54978 13.4285 7.44318 13.4285 7.31169V5.40704C13.4285 5.27555 13.5351 5.16895 13.6666 5.16895C13.7415 5.16895 13.8121 5.20423 13.857 5.26419L14.857 6.59744V5.40704C14.857 5.27555 14.9636 5.16895 15.0951 5.16895C15.2265 5.16895 15.3331 5.27555 15.3331 5.40704V7.31169C15.3331 7.41412 15.2675 7.50503 15.1703 7.53739C15.1461 7.54561 15.1207 7.54978 15.0951 7.54978Z" fill="#2196F3"/>
<path d="M16.9997 7.54844H16.0474C15.9159 7.54844 15.8093 7.44184 15.8093 7.31035V5.40569C15.8093 5.2742 15.9159 5.1676 16.0474 5.1676H16.9997C17.1312 5.1676 17.2378 5.2742 17.2378 5.40569C17.2378 5.53718 17.1312 5.64378 16.9997 5.64378H16.2854V7.07228H16.9997C17.1312 7.07228 17.2378 7.17888 17.2378 7.31037C17.2378 7.44186 17.1312 7.54844 16.9997 7.54844Z" fill="#2196F3"/>
<path d="M16.9997 6.59618H16.0474C15.9159 6.59618 15.8093 6.48957 15.8093 6.35809C15.8093 6.2266 15.9159 6.12 16.0474 6.12H16.9997C17.1312 6.12 17.2378 6.2266 17.2378 6.35809C17.2378 6.48957 17.1312 6.59618 16.9997 6.59618Z" fill="#2196F3"/>
<path d="M19.3805 7.54853C19.2779 7.54866 19.1868 7.48304 19.1544 7.38568L18.9044 6.63476L18.6544 7.38568C18.624 7.48842 18.526 7.55605 18.4192 7.54806C18.3134 7.54404 18.223 7.47072 18.1973 7.36807L17.7211 5.46341C17.6893 5.33574 17.767 5.20644 17.8947 5.17461C18.0224 5.14278 18.1517 5.2205 18.1835 5.34817L18.4611 6.45954L18.6787 5.80672C18.7353 5.68193 18.8823 5.62664 19.0071 5.68322C19.0619 5.70807 19.1057 5.75195 19.1306 5.80672L19.3482 6.45954L19.6258 5.34817C19.6576 5.2205 19.7869 5.14278 19.9146 5.17461C20.0422 5.20644 20.12 5.33572 20.0881 5.46341L19.612 7.36807C19.5862 7.47072 19.4958 7.54404 19.3901 7.54806L19.3805 7.54853Z" fill="#2196F3"/>
</svg>
